<?xml version="1.0" encoding="utf-8"?>
<!-- Generator: Adobe Illustrator 16.0.4, SVG Export Plug-In . SVG Version: 6.00 Build 0)  -->
<!DOCTYPE svg PUBLIC "-//W3C//DTD SVG 1.1//EN" "http://www.w3.org/Graphics/SVG/1.1/DTD/svg11.dtd">
<svg version="1.1" id="Calque_1" xmlns="http://www.w3.org/2000/svg" xmlns:xlink="http://www.w3.org/1999/xlink" x="0px" y="0px"
	 width="293.177px" height="50.12px" viewBox="0 0 293.177 50.12" enable-background="new 0 0 293.177 50.12" xml:space="preserve">
<g>
	<path fill="#3333FF" d="M48.522,35.795L35.846,7.171C33.837,2.681,29.802,0,25.049,0h-0.467c-4.784,0-8.84,2.681-10.848,7.171
		L1.059,35.792C0.6,36.808,0,38.365,0,40.272c0,2.789,1.065,5.412,2.999,7.384c1.068,1.089,2.333,1.91,3.719,2.436
		c0.043,0.018,0.089,0.027,0.138,0.027c0.144,0,0.269-0.078,0.335-0.194l0.001,0.001c3.519-6.049,10.069-10.117,17.571-10.117
		c7.492,0,14.037,4.082,17.559,10.119l0-0.003c0.067,0.116,0.192,0.194,0.336,0.194c0.054,0,0.119-0.021,0.165-0.042l0.001,0.001
		c1.365-0.536,2.612-1.375,3.669-2.453c1.956-1.993,3.033-4.641,3.033-7.457C49.528,38.725,49.199,37.295,48.522,35.795z
		 M24.764,35.302c-5.783,0-10.472-4.688-10.472-10.471c0-5.783,4.688-10.471,10.472-10.471c5.783,0,10.471,4.688,10.471,10.471
		C35.235,30.613,30.547,35.302,24.764,35.302z"/>
	<g>
		<g>
			<path fill="#333333" d="M68.729,27.843c0-0.106,0.053-0.346,0.16-0.719l8.79-25.689c0.213-0.56,0.972-0.839,2.277-0.839h2.077
				c1.305,0,2.064,0.28,2.277,0.839l8.79,25.689c0.08,0.267,0.12,0.506,0.12,0.719c0,0.586-0.666,0.879-1.998,0.879h-1.758
				c-1.305,0-2.051-0.28-2.237-0.839l-1.598-4.874h-9.428l-1.598,4.874c-0.187,0.56-0.799,0.839-1.838,0.839h-1.598
				C69.542,28.722,68.729,28.429,68.729,27.843z M77.918,17.735h5.993l-2.277-7.111l-0.599-2.557h-0.16
				c-0.24,1.252-0.439,2.104-0.6,2.557L77.918,17.735z"/>
			<path fill="#333333" d="M114.115,27.443V1.874c0-0.879,0.799-1.318,2.397-1.318h1.398c1.598,0,2.397,0.439,2.397,1.318v25.569
				c0,0.879-0.799,1.318-2.397,1.318h-1.398C114.914,28.761,114.115,28.322,114.115,27.443z"/>
			<path fill="#333333" d="M143.999,27.443V2.273c0-1.065,0.532-1.598,1.598-1.598h7.791c6.632,0,9.948,2.504,9.948,7.511
				c0,1.492-0.419,2.791-1.258,3.896c-0.839,1.105-1.978,1.925-3.416,2.457v0.16c0.506,0.187,1.025,0.633,1.558,1.338
				c0.533,0.706,0.972,1.485,1.318,2.337l3.516,8.79c0.133,0.346,0.2,0.599,0.2,0.759c0,0.533-0.799,0.799-2.397,0.799h-1.638
				c-1.333,0-2.104-0.28-2.317-0.839l-3.156-7.791c-0.453-0.879-0.939-1.498-1.458-1.857c-0.52-0.36-1.378-0.54-2.577-0.54h-1.558
				v9.748c0,0.853-0.799,1.279-2.397,1.279h-1.358C144.797,28.722,143.999,28.296,143.999,27.443z M150.151,12.381h3.795
				c0.825,0,1.544-0.333,2.158-0.999c0.612-0.666,0.918-1.471,0.918-2.417c0-0.945-0.299-1.691-0.899-2.237
				c-0.599-0.545-1.418-0.819-2.457-0.819h-3.516V12.381z"/>
			<path fill="#333333" d="M186.746,27.043V2.273c0-1.065,0.532-1.598,1.598-1.598h7.91c3.25,0,5.633,0.626,7.151,1.878
				s2.277,2.983,2.277,5.193c0,1.333-0.406,2.551-1.219,3.656c-0.812,1.105-1.844,1.912-3.096,2.417l0.04,0.16
				c1.571,0.319,2.863,1.105,3.875,2.357c1.012,1.252,1.518,2.65,1.518,4.195c0,2.611-0.833,4.615-2.497,6.013
				c-1.665,1.398-4.162,2.098-7.491,2.098h-8.47C187.278,28.642,186.746,28.109,186.746,27.043z M192.898,11.822h2.757
				c1.171,0,2.083-0.28,2.737-0.839c0.652-0.56,0.979-1.278,0.979-2.157c0-1.971-1.212-2.957-3.636-2.957h-2.836V11.822z
				 M192.898,23.408h3.916c1.171,0,2.077-0.279,2.716-0.839c0.64-0.559,0.959-1.358,0.959-2.397c0-2.078-1.438-3.116-4.315-3.116
				h-3.276V23.408z"/>
			<path fill="#333333" d="M226.058,27.843c0-0.106,0.053-0.346,0.16-0.719l8.79-25.689c0.213-0.56,0.972-0.839,2.277-0.839h2.077
				c1.305,0,2.064,0.28,2.277,0.839l8.79,25.689c0.08,0.267,0.12,0.506,0.12,0.719c0,0.586-0.666,0.879-1.998,0.879h-1.758
				c-1.305,0-2.051-0.28-2.237-0.839l-1.598-4.874h-9.428l-1.598,4.874c-0.187,0.56-0.799,0.839-1.838,0.839h-1.598
				C226.87,28.722,226.058,28.429,226.058,27.843z M235.247,17.735h5.993l-2.277-7.111l-0.599-2.557h-0.16
				c-0.24,1.252-0.439,2.104-0.6,2.557L235.247,17.735z"/>
			<path fill="#333333" d="M270.724,14.579c0-9.482,4.448-14.223,13.344-14.223c1.944,0,3.855,0.273,5.733,0.819
				c1.877,0.546,2.816,1.206,2.816,1.978c0,0.586-0.313,1.358-0.939,2.317c-0.626,0.958-1.178,1.438-1.658,1.438
				c-0.08,0-0.374-0.106-0.879-0.319c-1.465-0.639-3.196-0.959-5.194-0.959c-4.608,0-6.912,3.016-6.912,9.049
				s2.277,9.049,6.832,9.049c1.065,0,2.104-0.093,3.116-0.28v-5.074h-3.516c-0.799,0-1.199-0.666-1.199-1.998v-1.278
				c0-1.332,0.4-1.998,1.199-1.998h8.11c1.065,0,1.598,0.533,1.598,1.598v11.107c0,0.639-0.34,1.185-1.019,1.638
				c-0.679,0.454-1.552,0.773-2.617,0.959c-1.918,0.373-3.809,0.56-5.673,0.56c-4.475,0-7.784-1.165-9.928-3.496
				C271.796,23.135,270.724,19.506,270.724,14.579z"/>
		</g>
	</g>
	<g>
		<path fill="#3333FF" d="M67.901,44.551c0-2.179,1.022-3.269,3.067-3.269c0.447,0,0.878,0.062,1.295,0.184
			c0.416,0.123,0.624,0.275,0.624,0.459c0,0.135-0.072,0.312-0.216,0.533c-0.144,0.22-0.271,0.331-0.381,0.331
			c-0.019,0-0.083-0.024-0.193-0.073c-0.318-0.147-0.704-0.221-1.157-0.221c-1.059,0-1.589,0.693-1.589,2.08
			c0,1.386,0.523,2.08,1.57,2.08c0.441,0,0.863-0.092,1.267-0.275c0.135-0.062,0.214-0.092,0.239-0.092
			c0.128,0,0.251,0.105,0.367,0.317c0.116,0.211,0.175,0.371,0.175,0.481c0,0.245-0.227,0.435-0.68,0.569s-0.909,0.201-1.368,0.201
			c-1.028,0-1.789-0.268-2.282-0.803S67.901,45.684,67.901,44.551z"/>
		<path fill="#3333FF" d="M82.335,47.007c-0.508-0.565-0.762-1.379-0.762-2.438s0.254-1.872,0.762-2.438
			c0.508-0.566,1.236-0.85,2.186-0.85c0.949,0,1.675,0.283,2.181,0.85c0.505,0.566,0.757,1.379,0.757,2.438
			s-0.252,1.873-0.757,2.438c-0.505,0.566-1.232,0.849-2.181,0.849C83.572,47.856,82.843,47.574,82.335,47.007z M83.405,46.122
			c0.254,0.355,0.625,0.532,1.116,0.532c0.489,0,0.86-0.177,1.111-0.532c0.251-0.356,0.376-0.873,0.376-1.552
			c0-0.679-0.125-1.195-0.376-1.547s-0.622-0.528-1.111-0.528c-0.49,0-0.862,0.176-1.116,0.528
			c-0.254,0.352-0.381,0.868-0.381,1.547C83.024,45.249,83.151,45.766,83.405,46.122z"/>
		<path fill="#3333FF" d="M96.467,45.635v-4.003c0-0.196,0.184-0.294,0.551-0.294h0.312c0.367,0,0.551,0.098,0.551,0.294v3.912
			c0,0.325,0.116,0.59,0.349,0.799c0.232,0.207,0.532,0.312,0.9,0.312c0.367,0,0.668-0.104,0.904-0.312
			c0.235-0.209,0.354-0.475,0.354-0.799v-3.912c0-0.196,0.184-0.294,0.551-0.294h0.303c0.367,0,0.551,0.098,0.551,0.294v4.003
			c0,0.704-0.233,1.25-0.698,1.639c-0.465,0.389-1.12,0.582-1.965,0.582c-0.845,0-1.5-0.193-1.965-0.582
			S96.467,46.338,96.467,45.635z"/>
		<path fill="#3333FF" d="M111.021,47.508v-5.785c0-0.245,0.122-0.367,0.367-0.367h1.791c1.524,0,2.286,0.575,2.286,1.726
			c0,0.343-0.096,0.641-0.289,0.895c-0.193,0.254-0.455,0.442-0.785,0.565v0.036c0.116,0.043,0.235,0.146,0.358,0.308
			s0.224,0.342,0.303,0.537l0.808,2.021c0.03,0.079,0.046,0.137,0.046,0.174c0,0.123-0.184,0.184-0.551,0.184h-0.376
			c-0.306,0-0.483-0.064-0.532-0.192l-0.726-1.79c-0.104-0.203-0.216-0.345-0.335-0.428c-0.12-0.082-0.317-0.124-0.592-0.124h-0.358
			v2.242c0,0.195-0.184,0.293-0.551,0.293h-0.312C111.204,47.801,111.021,47.704,111.021,47.508z M112.434,44.046h0.873
			c0.189,0,0.355-0.076,0.496-0.229c0.141-0.153,0.211-0.338,0.211-0.555s-0.069-0.389-0.207-0.514s-0.326-0.188-0.565-0.188h-0.808
			V44.046z"/>
		<path fill="#3333FF" d="M125.785,47.508v-4.95h-1.46c-0.184,0-0.276-0.153-0.276-0.459v-0.285c0-0.306,0.092-0.459,0.276-0.459
			h4.343c0.184,0,0.275,0.153,0.275,0.459V42.1c0,0.306-0.092,0.459-0.275,0.459h-1.46v4.95c0,0.195-0.184,0.293-0.551,0.293h-0.321
			C125.969,47.801,125.785,47.704,125.785,47.508z"/>
		<path fill="#3333FF" d="M137.584,47.508v-5.877c0-0.202,0.184-0.303,0.551-0.303h0.321c0.367,0,0.551,0.101,0.551,0.303v5.877
			c0,0.201-0.184,0.303-0.551,0.303h-0.321C137.768,47.811,137.584,47.709,137.584,47.508z"/>
		<path fill="#3333FF" d="M148.217,47.417v-5.693c0-0.245,0.122-0.367,0.367-0.367h3.36c0.184,0,0.275,0.153,0.275,0.459V42.1
			c0,0.306-0.092,0.459-0.275,0.459h-2.314v1.332h2.066c0.184,0,0.275,0.153,0.275,0.459v0.285c0,0.306-0.092,0.459-0.275,0.459
			h-2.066v1.488h2.323c0.184,0,0.275,0.152,0.275,0.459v0.285c0,0.306-0.092,0.459-0.275,0.459h-3.37
			C148.339,47.784,148.217,47.661,148.217,47.417z"/>
		<path fill="#3333FF" d="M161.219,47.508v-5.785c0-0.245,0.122-0.367,0.367-0.367h1.791c1.524,0,2.286,0.575,2.286,1.726
			c0,0.343-0.096,0.641-0.289,0.895c-0.193,0.254-0.455,0.442-0.785,0.565v0.036c0.116,0.043,0.235,0.146,0.358,0.308
			s0.224,0.342,0.303,0.537l0.808,2.021c0.03,0.079,0.046,0.137,0.046,0.174c0,0.123-0.184,0.184-0.551,0.184h-0.376
			c-0.306,0-0.483-0.064-0.532-0.192l-0.726-1.79c-0.104-0.203-0.216-0.345-0.335-0.428c-0.12-0.082-0.317-0.124-0.592-0.124h-0.358
			v2.242c0,0.195-0.184,0.293-0.551,0.293h-0.312C161.402,47.801,161.219,47.704,161.219,47.508z M162.632,44.046h0.873
			c0.189,0,0.355-0.076,0.496-0.229c0.141-0.153,0.211-0.338,0.211-0.555s-0.069-0.389-0.207-0.514s-0.326-0.188-0.565-0.188h-0.808
			V44.046z"/>
		<path fill="#3333FF" d="M184.779,44.551c0-2.179,1.022-3.269,3.067-3.269c0.447,0,0.886,0.063,1.318,0.188
			c0.431,0.125,0.647,0.277,0.647,0.454c0,0.135-0.072,0.312-0.216,0.533c-0.144,0.22-0.271,0.331-0.381,0.331
			c-0.019,0-0.086-0.024-0.202-0.073c-0.336-0.147-0.734-0.221-1.193-0.221c-1.059,0-1.589,0.693-1.589,2.08
			c0,1.386,0.523,2.08,1.57,2.08c0.245,0,0.483-0.021,0.716-0.064v-1.167h-0.808c-0.184,0-0.275-0.152-0.275-0.459V44.67
			c0-0.306,0.092-0.458,0.275-0.458h1.864c0.245,0,0.368,0.123,0.368,0.367v2.553c0,0.146-0.078,0.272-0.234,0.377
			c-0.156,0.104-0.356,0.178-0.602,0.22c-0.44,0.086-0.875,0.128-1.304,0.128c-1.028,0-1.789-0.268-2.282-0.803
			S184.779,45.684,184.779,44.551z"/>
		<path fill="#3333FF" d="M199.159,47.508v-5.785c0-0.245,0.122-0.367,0.367-0.367h1.791c1.524,0,2.286,0.575,2.286,1.726
			c0,0.343-0.096,0.641-0.289,0.895c-0.193,0.254-0.455,0.442-0.785,0.565v0.036c0.116,0.043,0.235,0.146,0.358,0.308
			s0.224,0.342,0.303,0.537l0.808,2.021c0.03,0.079,0.046,0.137,0.046,0.174c0,0.123-0.184,0.184-0.551,0.184h-0.376
			c-0.306,0-0.483-0.064-0.532-0.192l-0.726-1.79c-0.104-0.203-0.216-0.345-0.335-0.428c-0.12-0.082-0.317-0.124-0.592-0.124h-0.358
			v2.242c0,0.195-0.184,0.293-0.551,0.293h-0.312C199.342,47.801,199.159,47.704,199.159,47.508z M200.572,44.046h0.873
			c0.189,0,0.355-0.076,0.496-0.229c0.141-0.153,0.211-0.338,0.211-0.555s-0.069-0.389-0.207-0.514s-0.326-0.188-0.565-0.188h-0.808
			V44.046z"/>
		<path fill="#3333FF" d="M213.29,47.007c-0.508-0.565-0.762-1.379-0.762-2.438s0.254-1.872,0.762-2.438
			c0.508-0.566,1.236-0.85,2.186-0.85c0.949,0,1.675,0.283,2.181,0.85c0.505,0.566,0.757,1.379,0.757,2.438
			s-0.252,1.873-0.757,2.438c-0.505,0.566-1.232,0.849-2.181,0.849C214.526,47.856,213.797,47.574,213.29,47.007z M214.359,46.122
			c0.254,0.355,0.625,0.532,1.116,0.532c0.489,0,0.86-0.177,1.111-0.532c0.251-0.356,0.376-0.873,0.376-1.552
			c0-0.679-0.125-1.195-0.376-1.547s-0.622-0.528-1.111-0.528c-0.49,0-0.862,0.176-1.116,0.528
			c-0.254,0.352-0.381,0.868-0.381,1.547C213.978,45.249,214.105,45.766,214.359,46.122z"/>
		<path fill="#3333FF" d="M227.017,47.049c0-0.142,0.07-0.312,0.211-0.515s0.26-0.304,0.358-0.304c0.037,0,0.116,0.034,0.239,0.102
			c0.379,0.215,0.75,0.321,1.111,0.321c0.575,0,0.863-0.224,0.863-0.671c0-0.195-0.092-0.361-0.276-0.496
			c-0.184-0.135-0.405-0.252-0.666-0.354c-0.26-0.101-0.519-0.217-0.776-0.349c-0.257-0.132-0.478-0.335-0.661-0.61
			s-0.275-0.62-0.275-1.033s0.11-0.767,0.331-1.061c0.398-0.533,1.013-0.799,1.846-0.799c0.465,0,0.857,0.067,1.175,0.202
			c0.318,0.135,0.478,0.282,0.478,0.44c0,0.135-0.059,0.302-0.175,0.5c-0.116,0.199-0.227,0.299-0.331,0.299
			c-0.024,0-0.08-0.021-0.165-0.064c-0.245-0.11-0.528-0.166-0.85-0.166c-0.321,0-0.545,0.055-0.67,0.166
			c-0.125,0.11-0.188,0.248-0.188,0.413c0,0.166,0.092,0.312,0.275,0.441c0.184,0.128,0.404,0.242,0.661,0.34
			c0.257,0.098,0.516,0.212,0.776,0.344c0.26,0.131,0.482,0.334,0.666,0.61s0.275,0.604,0.275,0.988c0,0.383-0.06,0.71-0.179,0.982
			c-0.119,0.272-0.283,0.485-0.491,0.639c-0.404,0.293-0.9,0.439-1.487,0.439c-0.588,0-1.081-0.088-1.479-0.266
			S227.017,47.233,227.017,47.049z"/>
		<path fill="#3333FF" d="M239.596,47.049c0-0.142,0.07-0.312,0.211-0.515s0.26-0.304,0.358-0.304c0.037,0,0.116,0.034,0.239,0.102
			c0.379,0.215,0.75,0.321,1.111,0.321c0.575,0,0.863-0.224,0.863-0.671c0-0.195-0.092-0.361-0.276-0.496
			c-0.184-0.135-0.405-0.252-0.666-0.354c-0.26-0.101-0.519-0.217-0.776-0.349c-0.257-0.132-0.478-0.335-0.661-0.61
			s-0.275-0.62-0.275-1.033s0.11-0.767,0.331-1.061c0.398-0.533,1.013-0.799,1.846-0.799c0.465,0,0.857,0.067,1.175,0.202
			c0.318,0.135,0.478,0.282,0.478,0.44c0,0.135-0.059,0.302-0.175,0.5c-0.116,0.199-0.227,0.299-0.331,0.299
			c-0.024,0-0.08-0.021-0.165-0.064c-0.245-0.11-0.528-0.166-0.85-0.166c-0.321,0-0.545,0.055-0.67,0.166
			c-0.125,0.11-0.188,0.248-0.188,0.413c0,0.166,0.092,0.312,0.275,0.441c0.184,0.128,0.404,0.242,0.661,0.34
			c0.257,0.098,0.516,0.212,0.776,0.344c0.26,0.131,0.482,0.334,0.666,0.61s0.275,0.604,0.275,0.988c0,0.383-0.06,0.71-0.179,0.982
			c-0.119,0.272-0.283,0.485-0.491,0.639c-0.404,0.293-0.9,0.439-1.487,0.439c-0.588,0-1.081-0.088-1.479-0.266
			S239.596,47.233,239.596,47.049z"/>
		<path fill="#3333FF" d="M252.552,47.508v-5.877c0-0.202,0.184-0.303,0.551-0.303h0.321c0.367,0,0.551,0.101,0.551,0.303v5.877
			c0,0.201-0.184,0.303-0.551,0.303h-0.321C252.736,47.811,252.552,47.709,252.552,47.508z"/>
		<path fill="#3333FF" d="M262.753,47.049c0-0.142,0.07-0.312,0.211-0.515s0.26-0.304,0.358-0.304c0.037,0,0.116,0.034,0.239,0.102
			c0.379,0.215,0.75,0.321,1.111,0.321c0.575,0,0.863-0.224,0.863-0.671c0-0.195-0.092-0.361-0.276-0.496
			c-0.184-0.135-0.405-0.252-0.666-0.354c-0.26-0.101-0.519-0.217-0.776-0.349c-0.257-0.132-0.478-0.335-0.661-0.61
			s-0.275-0.62-0.275-1.033s0.11-0.767,0.331-1.061c0.398-0.533,1.013-0.799,1.846-0.799c0.465,0,0.857,0.067,1.175,0.202
			c0.318,0.135,0.478,0.282,0.478,0.44c0,0.135-0.059,0.302-0.175,0.5c-0.116,0.199-0.227,0.299-0.331,0.299
			c-0.024,0-0.08-0.021-0.165-0.064c-0.245-0.11-0.528-0.166-0.85-0.166c-0.321,0-0.545,0.055-0.67,0.166
			c-0.125,0.11-0.188,0.248-0.188,0.413c0,0.166,0.092,0.312,0.275,0.441c0.184,0.128,0.404,0.242,0.661,0.34
			c0.257,0.098,0.516,0.212,0.776,0.344c0.26,0.131,0.482,0.334,0.666,0.61s0.275,0.604,0.275,0.988c0,0.383-0.06,0.71-0.179,0.982
			c-0.119,0.272-0.283,0.485-0.491,0.639c-0.404,0.293-0.9,0.439-1.487,0.439c-0.588,0-1.081-0.088-1.479-0.266
			S262.753,47.233,262.753,47.049z"/>
		<path fill="#3333FF" d="M276.939,47.508v-4.95h-1.46c-0.184,0-0.276-0.153-0.276-0.459v-0.285c0-0.306,0.092-0.459,0.276-0.459
			h4.343c0.184,0,0.275,0.153,0.275,0.459V42.1c0,0.306-0.092,0.459-0.275,0.459h-1.46v4.95c0,0.195-0.184,0.293-0.551,0.293h-0.321
			C277.123,47.801,276.939,47.704,276.939,47.508z"/>
		<path fill="#3333FF" d="M288.794,47.417v-5.693c0-0.245,0.122-0.367,0.367-0.367h3.36c0.184,0,0.275,0.153,0.275,0.459V42.1
			c0,0.306-0.092,0.459-0.275,0.459h-2.314v1.332h2.066c0.184,0,0.275,0.153,0.275,0.459v0.285c0,0.306-0.092,0.459-0.275,0.459
			h-2.066v1.488h2.323c0.184,0,0.275,0.152,0.275,0.459v0.285c0,0.306-0.092,0.459-0.275,0.459h-3.37
			C288.916,47.784,288.794,47.661,288.794,47.417z"/>
	</g>
</g>
</svg>
