<?xml version="1.0" encoding="utf-8"?>
<!-- Generator: Adobe Illustrator 27.8.0, SVG Export Plug-In . SVG Version: 6.00 Build 0)  -->
<svg version="1.1" id="Calque_1" xmlns="http://www.w3.org/2000/svg" xmlns:xlink="http://www.w3.org/1999/xlink" x="0px" y="0px"
	 viewBox="0 0 339.8 66.4" style="enable-background:new 0 0 339.8 66.4;" xml:space="preserve">
<style type="text/css">
	.st0{fill:#EF8354;}
	.st1{fill:#03579E;}
</style>
<g>
	<path class="st0" d="M196.5,19.7L196.5,19.7c-3.2,0-5.8-2.6-5.8-5.8v-1c0-3.2,2.6-5.8,5.8-5.8l0,0c3.2,0,5.8,2.6,5.8,5.8v1
		C202.3,17.1,199.7,19.7,196.5,19.7z"/>
	<path class="st1" d="M109,26c3.3,3.1,4.9,7.4,4.9,13c0,2.1-0.1,3.9-0.3,5.2H86.1c0.4,7.2,4.1,10.9,10.8,10.9
		c3.8,0,7.4-1.2,10.9-3.5c2.6,1.4,4.2,3.3,4.9,5.8c-4.6,3.5-10.1,5.2-16.5,5.2c-6.3,0-11.4-1.8-15.1-5.3c-3.8-3.5-5.6-8.6-5.6-15.2
		c0-6.4,1.9-11.5,5.6-15.2c3.7-3.7,8.5-5.6,14.4-5.6C101.2,21.3,105.7,22.9,109,26z M88.8,19c-1.5-0.8-2.6-2-3.3-3.6L99,3.7
		c3.2,1.2,5.3,3.5,6.3,6.8L88.8,19z M103.9,38.3c0-5.6-2.6-9.5-8.3-9.7c-5.5,0-8.8,3.6-9.5,9.7H103.9z"/>
	<path class="st1" d="M140.9,62.7c-6.3,0-11.4-1.8-15.3-5.4c-3.9-3.6-5.8-8.7-5.8-15.3c0-6.6,2-11.7,5.9-15.3
		c4-3.6,9.1-5.4,15.4-5.4c6.3,0,11.4,1.8,15.2,5.4c3.9,3.6,5.8,8.7,5.8,15.3c0,6.6-2,11.7-5.9,15.3
		C152.3,60.8,147.2,62.7,140.9,62.7z M151.8,41.9c0-8.3-3.9-12.9-10.6-12.9c-6.9,0-10.7,4.6-10.7,12.9c0,8.3,3.8,13,10.7,13
		C147.9,54.8,151.8,50.2,151.8,41.9z"/>
	<path class="st1" d="M170.6,61.4V12.2c0-2.8,2.2-5.1,5-5.1c0,0,0,0,0.1,0c0.1,0,0.2,0,0.3,0c2.8,0,5,2.3,5,5.1v49.2
		c-1.4,0.3-3.1,0.4-5.2,0.4C173.9,61.8,172.2,61.7,170.6,61.4z"/>
	<path class="st1" d="M191.7,61.4V27.7c0-2.2,1.7-4,3.9-4c0.4,0,0.8,0,1.3,0c0.5,0,0.9,0,1.3,0c2.2,0.1,3.9,1.9,3.9,4v33.7
		c-1.4,0.3-3.1,0.4-5.2,0.4C194.9,61.8,193.1,61.7,191.7,61.4z"/>
	<path class="st1" d="M241.4,24.8c3.3,2.3,4.9,5.9,4.9,10.7v23.8c-5.5,2.2-11.6,3.4-18.4,3.4c-11.8,0-18-4.4-18-12.6
		c0-4.1,1.6-7.2,4.8-9.3c3.2-2.1,7.4-3.2,12.6-3.1c3.2,0,6.2,0.4,8.8,1.2v-3.4c0-4.3-3-6.4-9-6.4c-4.2,0-7.6,1.1-10.4,3.3
		c-2.7-1-4.5-2.8-5.4-5.4c1.5-1.4,3.7-2.7,6.5-3.8c2.9-1.2,6.2-1.7,10-1.7C233.6,21.3,238.1,22.5,241.4,24.8z M228.9,55.8
		c2.5,0,5-0.3,7.2-0.9v-9.7c-2.2-0.8-4.9-1.2-7.9-1.2c-5,0-8,1.9-8,5.6C220.2,53.8,223.1,55.8,228.9,55.8z"/>
	<path class="st1" d="M288.9,25.1c3.1,2.6,4.6,6.1,4.6,10.4v25.9c-1.4,0.3-3.1,0.4-5.1,0.4c-2,0-3.7-0.1-5.2-0.4V37.2
		c0-5.3-3-8-9.1-8c0,0-0.1,0-0.1,0c-4.5,0-8,3.7-8,8.2v24c-1.4,0.3-3.1,0.4-5.1,0.4c-2.1,0-3.8-0.1-5.2-0.4V33.6c0-5,3.2-9.5,8-10.9
		c0,0,0.1,0,0.1,0c3.4-1,7.1-1.5,11.1-1.5C281.2,21.2,285.8,22.5,288.9,25.1z"/>
	<path class="st1" d="M335,26c3.3,3.1,4.9,7.4,4.9,13c0,2.1-0.1,3.9-0.3,5.2h-27.4c0.4,7.2,4.1,10.9,10.8,10.9
		c3.8,0,7.4-1.2,10.9-3.5c2.6,1.4,4.2,3.3,4.9,5.8c-4.6,3.5-10.1,5.2-16.5,5.2c-6.3,0-11.4-1.8-15.1-5.3c-3.8-3.5-5.6-8.6-5.6-15.2
		c0-6.4,1.9-11.5,5.6-15.2c3.7-3.7,8.5-5.6,14.4-5.6C327.1,21.3,331.6,22.9,335,26z M329.9,38.3c0-5.6-2.6-9.5-8.3-9.7
		c-5.5,0-8.8,3.6-9.5,9.7H329.9z"/>
</g>
<path class="st0" d="M47.6,29.7c-2.4-2.7-7.3-8-12.6-13.3C20.5,2,15.3,0,11.8,0C4.6,0,0,5.3,0,13.4v39.5c0,8.6,4.9,13.5,13.3,13.5
	c5.3,0,9.8-4.3,12.5-7.9c0.8-1.1,1.2-2.5,0.9-3.8c-0.2-1.3-1.1-2.5-2.2-3.2c-2.1-1.3-4.8-0.8-6.3,1.2c-2.1,2.7-4.1,4.2-5,4.2
	c-3.4,0-3.8-0.8-3.8-3.9V13.4c0-3.7,1.3-3.8,2.1-3.8C12.2,9.7,16,11,28.3,23.3c5.2,5.1,9.9,10.3,12.3,12.9c1.7,1.9,4.8,2.1,6.7,0.4
	c1-0.9,1.5-2,1.6-3.3C48.9,31.9,48.5,30.7,47.6,29.7z"/>
<path class="st1" d="M53.6,0C48,0,43.3,5,41,7.9c-0.8,1.1-1.2,2.5-0.9,3.8c0.3,1.3,1.1,2.5,2.2,3.2c2.1,1.3,4.8,0.8,6.3-1.2
	c2.1-2.7,4.1-4.2,5-4.2c3.4,0,3.8,0.8,3.8,3.9V53c0,3.7-1.3,3.8-2.1,3.8c-0.5-0.1-4.3-1.4-16.6-13.7c-5.1-5.1-9.9-10.3-12.3-12.9
	c-1.7-1.9-4.8-2.1-6.7-0.4c-1,0.9-1.5,2-1.6,3.3c-0.1,1.3,0.4,2.5,1.2,3.5c2.4,2.7,7.3,8,12.6,13.3c14.6,14.5,19.8,16.5,23.2,16.5
	c7.2,0,11.8-5.3,11.8-13.4V13.5C66.9,4.9,62.1,0,53.6,0z"/>
</svg>
