<svg width="224" height="57" viewBox="0 0 224 57" fill="none" xmlns="http://www.w3.org/2000/svg">
<g clip-path="url(#clip0_102_204)">
<path d="M0 46.9373V9.74915H7.7766C13.3824 9.74915 17.452 10.1964 19.9854 11.0908C23.4964 12.2542 26.5035 14.5687 28.5118 17.6535C30.6226 20.9903 31.6916 24.8719 31.5842 28.8099C31.659 32.244 30.8199 35.6369 29.1512 38.6465C27.7054 41.3034 25.5082 43.4831 22.83 44.9175C20.2329 46.2689 16.5994 46.9446 11.9295 46.9446L0 46.9373ZM3.59429 43.4154H7.93096C13.1154 43.4154 16.7097 43.097 18.7138 42.4602C21.417 41.6137 23.7498 39.8807 25.3291 37.5455C27.008 34.9622 27.8541 31.933 27.7547 28.861C27.8473 25.601 26.9288 22.3914 25.1233 19.666C23.3917 17.1236 20.817 15.2634 17.8465 14.4086C15.5042 13.7232 11.638 13.378 6.24774 13.3732H3.59429V43.4154Z" fill="#1D1D1B"/>
<path d="M38.7213 8.08659C39.304 8.08613 39.8738 8.25746 40.3581 8.57884C40.8425 8.90021 41.2197 9.35713 41.4418 9.89158C41.6639 10.426 41.721 11.0139 41.6056 11.5806C41.4903 12.1472 41.2078 12.6671 40.7941 13.0742C40.5245 13.3503 40.201 13.569 39.8433 13.7169C39.4857 13.8648 39.1014 13.9389 38.714 13.9346C38.3298 13.9385 37.949 13.8641 37.595 13.7161C37.241 13.5681 36.9214 13.3496 36.6559 13.0742C36.3804 12.808 36.1621 12.4893 36.0143 12.1371C35.8665 11.7849 35.7922 11.4067 35.7959 11.0252C35.7899 10.6391 35.863 10.2558 36.0109 9.89854C36.1587 9.54131 36.3781 9.21759 36.6559 8.94702C36.9222 8.67066 37.243 8.45165 37.5984 8.30362C37.9537 8.15559 38.336 8.08171 38.7213 8.08659V8.08659ZM36.9499 19.418H40.5148V46.9373H36.9499V19.418Z" fill="#1D1D1B"/>
<path d="M61.0956 22.4296L58.8023 24.7776C56.8912 22.94 55.0243 22.0213 53.2014 22.0213C52.1103 22.0111 51.0573 22.4185 50.2613 23.1588C49.8753 23.4888 49.5653 23.8972 49.3523 24.3564C49.1392 24.8156 49.0281 25.3148 49.0264 25.8203C49.0459 26.7653 49.4087 27.6716 50.0481 28.3724C50.7243 29.1988 52.1552 30.1711 54.3407 31.2891C56.9917 32.6503 58.795 33.9652 59.7505 35.234C60.6806 36.4852 61.1735 38.0035 61.1544 39.558C61.1759 40.6269 60.9741 41.6885 60.5617 42.6761C60.1493 43.6638 59.5353 44.556 58.7582 45.2967C57.9708 46.071 57.0333 46.6789 56.0025 47.0837C54.9716 47.4885 53.8687 47.6818 52.7604 47.6519C51.1611 47.6559 49.5822 47.2967 48.1444 46.6019C46.731 45.9482 45.4941 44.971 44.5354 43.7508L46.7405 41.2206C48.583 43.2769 50.521 44.305 52.5546 44.305C53.9118 44.3421 55.2301 43.8529 56.2297 42.9414C56.6974 42.5404 57.0713 42.0429 57.3252 41.4837C57.5791 40.9246 57.7069 40.3171 57.6998 39.7039C57.713 38.7217 57.3715 37.7672 56.7369 37.0132C56.0705 36.2354 54.571 35.2632 52.2385 34.0965C49.7345 32.8228 48.0317 31.5589 47.1301 30.3047C46.2279 29.0617 45.7537 27.5633 45.7776 26.0318C45.7497 25.0617 45.927 24.0966 46.2979 23.1987C46.6688 22.3007 47.2252 21.4898 47.9312 20.8181C48.6559 20.1306 49.5115 19.5933 50.4479 19.2377C51.3844 18.8821 52.3829 18.7154 53.3851 18.7472C55.9332 18.7229 58.5034 19.9504 61.0956 22.4296Z" fill="#1D1D1B"/>
<path d="M66.6818 19.418H70.2541V24.4785C71.5157 22.682 73.1816 21.2016 75.1199 20.1545C77.0127 19.1723 79.1215 18.6713 81.2574 18.6961C83.1444 18.6706 85.0164 19.0325 86.7556 19.759C88.4949 20.4856 90.0639 21.5611 91.3641 22.9181C92.7217 24.2421 93.7943 25.8256 94.517 27.5728C95.2397 29.32 95.5974 31.1945 95.5685 33.0829C95.6064 34.9909 95.257 36.8871 94.541 38.6584C93.825 40.4297 92.7571 42.04 91.4008 43.3935C89.3597 45.4954 86.7016 46.9041 83.8057 47.4187C80.9097 47.9333 77.924 47.5275 75.2743 46.2592C73.328 45.273 71.6164 43.8857 70.2541 42.1903V57H66.6818V19.418ZM80.9634 22.1233C79.5045 22.0911 78.0548 22.3612 76.7069 22.9161C75.359 23.471 74.1426 24.2987 73.1354 25.3463C72.0875 26.4009 71.2664 27.6556 70.7219 29.0343C70.1773 30.4131 69.9206 31.8872 69.9674 33.3673C69.9365 35.3335 70.4229 37.2737 71.3787 38.9965C72.3259 40.6702 73.7296 42.045 75.4287 42.9633C77.1208 43.9225 79.0366 44.4253 80.9855 44.4216C82.8862 44.4297 84.7534 43.9257 86.3879 42.9633C88.0796 41.9678 89.4707 40.5399 90.4159 38.8288C91.3933 37.1376 91.9076 35.222 91.9076 33.2725C91.9076 31.3229 91.3933 29.4074 90.4159 27.7161C89.4842 26.0289 88.1093 24.6235 86.4373 23.6491C84.7653 22.6747 82.8585 22.1676 80.9193 22.1816L80.9634 22.1233Z" fill="#1D1D1B"/>
<path d="M114.591 18.7108C116.594 18.6631 118.582 19.0502 120.418 19.8449C122.254 20.6397 123.893 21.823 125.219 23.3119C127.722 26.0668 129.088 29.6545 129.047 33.3626C129.006 37.0707 127.561 40.6279 124.999 43.3279C123.637 44.6955 122.014 45.7812 120.226 46.5222C118.437 47.2632 116.518 47.6448 114.58 47.6448C112.642 47.6448 110.723 47.2632 108.934 46.5222C107.146 45.7812 105.523 44.6955 104.161 43.3279C101.597 40.6342 100.151 37.0805 100.111 33.3759C100.072 29.6712 101.442 26.088 103.948 23.3411C105.273 21.8442 106.912 20.6537 108.751 19.8537C110.59 19.0537 112.584 18.6636 114.591 18.7108V18.7108ZM114.591 22.1744C113.158 22.1607 111.737 22.4443 110.421 23.0068C109.105 23.5693 107.921 24.3985 106.947 25.4411C105.903 26.4809 105.08 27.7185 104.528 29.0802C103.977 30.442 103.707 31.8999 103.735 33.3673C103.729 35.317 104.236 37.2344 105.205 38.9309C106.134 40.5704 107.499 41.925 109.152 42.8466C110.819 43.7647 112.695 44.2465 114.602 44.2465C116.509 44.2465 118.385 43.7647 120.052 42.8466C121.711 41.906 123.075 40.528 123.992 38.8653C124.961 37.1688 125.467 35.2514 125.462 33.3017C125.49 31.8398 125.219 30.3874 124.668 29.0316C124.116 27.6759 123.293 26.4447 122.25 25.4119C121.27 24.3719 120.082 23.5465 118.762 22.989C117.442 22.4314 116.018 22.154 114.584 22.1744H114.591Z" fill="#1D1D1B"/>
<path d="M148.843 22.4295L146.543 24.7775C144.637 22.94 142.772 22.0212 140.949 22.0212C139.835 21.9916 138.754 22.4005 137.943 23.1587C137.555 23.4874 137.243 23.8954 137.029 24.3548C136.814 24.8142 136.702 25.314 136.701 25.8202C136.724 26.7645 137.086 27.6695 137.722 28.3724C138.408 29.1988 139.839 30.171 142.015 31.2891C144.676 32.6502 146.481 33.9652 147.432 35.234C148.36 36.484 148.855 37.9984 148.843 39.5507C148.863 40.62 148.66 41.6818 148.247 42.6694C147.833 43.657 147.218 44.549 146.44 45.2893C145.653 46.0647 144.716 46.6733 143.685 47.0782C142.654 47.4831 141.55 47.6758 140.442 47.6446C138.856 47.6458 137.29 47.2892 135.863 46.6019C134.448 45.9463 133.21 44.9695 132.246 43.7508L134.496 41.2205C136.309 43.2768 138.239 44.3049 140.288 44.3049C141.645 44.3412 142.963 43.8522 143.963 42.9414C144.426 42.5426 144.796 42.0496 145.05 41.496C145.304 40.9424 145.434 40.3411 145.433 39.733C145.446 38.7357 145.09 37.7682 144.433 37.0131C143.772 36.2354 142.275 35.2631 139.942 34.0964C137.438 32.8228 135.723 31.5589 134.797 30.3047C133.898 29.06 133.424 27.5627 133.444 26.0317C133.418 25.0612 133.597 24.0959 133.969 23.198C134.341 22.3001 134.898 21.4894 135.605 20.8181C136.33 20.1298 137.185 19.5921 138.122 19.2365C139.058 18.8809 140.057 18.7145 141.059 18.7472C143.642 18.7229 146.236 19.9503 148.843 22.4295Z" fill="#4DAD33"/>
<path d="M153.893 19.4181H157.458V32.2662C157.367 34.4373 157.54 36.6113 157.972 38.7414C158.447 40.3753 159.489 41.7904 160.912 42.7373C162.436 43.7363 164.232 44.2455 166.058 44.1956C167.86 44.2438 169.632 43.7341 171.129 42.7373C172.48 41.8358 173.491 40.5149 174.003 38.982C174.356 37.9174 174.54 35.6715 174.54 32.2298V19.4181H178.178V32.9225C178.178 36.7142 177.732 39.5726 176.841 41.4977C175.99 43.3727 174.586 44.9468 172.813 46.0113C170.762 47.1647 168.428 47.7302 166.072 47.6446C163.707 47.7272 161.365 47.1621 159.303 46.0113C157.512 44.9454 156.097 43.3561 155.253 41.4612C154.356 39.5167 153.91 36.5854 153.915 32.6673L153.893 19.4181Z" fill="#4DAD33"/>
<path d="M183.956 19.4181H187.631V23.4431C188.533 22.0459 189.701 20.837 191.071 19.8847C192.183 19.1321 193.495 18.7235 194.841 18.7108C195.958 18.7487 197.046 19.07 198.002 19.6441L196.142 22.6337C195.551 22.3507 194.909 22.1871 194.253 22.1525C192.963 22.1932 191.735 22.7138 190.813 23.6108C189.557 24.8468 188.683 26.4126 188.292 28.1245C187.851 29.6946 187.631 32.8544 187.631 37.6038V46.9373H183.956V19.4181Z" fill="#4DAD33"/>
<path d="M182.412 -5.22909e-06C176.432 -0.0189935 170.484 0.863669 164.771 2.61775C168.13 2.05254 171.53 1.76958 174.937 1.7719C197.914 1.7719 216.532 14.168 216.532 29.4078C216.532 40.4768 206.749 50.0145 192.614 54.4333C210.652 51.4072 224.007 40.5789 224.007 27.6359C224.007 12.3669 205.382 -5.22909e-06 182.412 -5.22909e-06Z" fill="#4DAD33"/>
</g>
<defs>
<clipPath id="clip0_102_204">
<rect width="224" height="57" fill="white"/>
</clipPath>
</defs>
</svg>
