<?xml version="1.0" encoding="utf-8"?>
<!-- Generator: Adobe Illustrator 27.5.0, SVG Export Plug-In . SVG Version: 6.00 Build 0)  -->
<svg version="1.1" xmlns="http://www.w3.org/2000/svg" xmlns:xlink="http://www.w3.org/1999/xlink" x="0px" y="0px"
	 viewBox="0 0 515.91 206.93" style="enable-background:new 0 0 515.91 206.93;" xml:space="preserve">
<style type="text/css">
	.st0{display:none;}
	.st1{display:inline;fill:#0F526E;}
	.st2{fill:#FFFFFF;}
	.st3{fill:#E30613;}
	.st4{fill:#95C11F;}
	.st5{fill:#717E86;}
	.st6{fill:#FBBA00;}
</style>
<g id="Calque_1">
</g>
<g id="Calque_2">
</g>
<g id="Calque_3">
	<g class="st0">
		<path class="st1" d="M619.88,154.25c2.01-3.49,0.82-7.95-2.67-9.97c-3.49-2.02-7.95-0.82-9.97,2.67
			c-2.01,3.49-0.82,7.95,2.67,9.97C613.4,158.93,617.86,157.74,619.88,154.25z M623.98,137.84c1.77-3.06,0.72-6.98-2.34-8.75
			c-3.06-1.77-6.98-0.72-8.75,2.34c-1.77,3.06-0.72,6.98,2.34,8.75C618.29,141.95,622.21,140.9,623.98,137.84z M620.76,121.44
			c1.52-2.64,0.62-6.01-2.02-7.53c-2.64-1.52-6.01-0.62-7.53,2.02c-1.52,2.64-0.62,6.01,2.02,7.53
			C615.87,124.98,619.24,124.08,620.76,121.44z M610.88,107.48c1.28-2.21,0.52-5.04-1.69-6.31c-2.21-1.28-5.04-0.52-6.31,1.69
			c-1.28,2.21-0.52,5.04,1.69,6.31C606.78,110.45,609.6,109.69,610.88,107.48z M595.42,98.56c1.03-1.78,0.42-4.06-1.36-5.09
			s-4.06-0.42-5.09,1.36c-1.03,1.78-0.42,4.06,1.36,5.09C592.11,100.95,594.39,100.34,595.42,98.56z M578.39,96.97
			c0.78-1.36,0.32-3.09-1.04-3.87c-1.36-0.78-3.09-0.32-3.87,1.04c-0.78,1.36-0.32,3.09,1.04,3.87
			C575.87,98.8,577.6,98.33,578.39,96.97z M562.58,102.39c0.54-0.93,0.22-2.12-0.71-2.66c-0.93-0.54-2.12-0.22-2.66,0.71
			c-0.54,0.93-0.22,2.12,0.71,2.66C560.85,103.64,562.04,103.32,562.58,102.39z M550.42,114.15c0.29-0.5,0.12-1.15-0.39-1.44
			c-0.5-0.29-1.15-0.12-1.44,0.38c-0.29,0.5-0.12,1.15,0.39,1.44C549.49,114.82,550.13,114.65,550.42,114.15z"/>
	</g>
	<path class="st2" d="M321.95,64.73c-14.95-1.59-28.48,4.85-36.84,15.53l0-15.65h-8.95v113.23h8.95v-46.99
		c7.52,9.59,19.2,15.77,32.34,15.77c23.44,0,42.3-19.65,41-43.37C357.36,83.4,341.71,66.84,321.95,64.73z M321.62,137.43
		c-21.02,2.65-38.7-15.03-36.05-36.05c1.81-14.32,13.37-25.89,27.69-27.69c21.02-2.65,38.7,15.03,36.05,36.05
		C347.5,124.06,335.94,135.62,321.62,137.43z"/>
	<rect x="447.79" y="64.61" class="st2" width="8.95" height="82.06"/>
	<path class="st2" d="M441.91,104.85c-0.38-22.35-18.6-40.36-41.05-40.36c-12.97,0-24.54,6.02-32.06,15.42V29.09h-8.95v74.32
		c0,2.88,0,2.15,0,2.15l0,41.11h8.95l0-43.19c1.07-16.78,15.01-30.06,32.06-30.06c17.69,0,32.04,14.3,32.13,31.96v41.28h8.95v-41.82
		H441.91z"/>
	<path class="st2" d="M503.73,64.49c-12.97,0-24.54,6.02-32.06,15.42v-15.3h-8.95v38.79c0,3.59,0,2.15,0,2.15l0,41.11h8.95l0-43.18
		c1.07-16.78,15.01-30.06,32.06-30.06c3.23,0,6.34,0.49,9.27,1.37v-9.24C510.02,64.87,506.92,64.49,503.73,64.49z"/>
	<rect x="447.79" y="51.54" class="st2" width="8.96" height="9.06"/>
	<g>
		<path class="st3" d="M67.86,98.48c0,0,23.32,18.96,52.85,0.38c0,0-18.54,14.8-40.74,13.33C57.77,110.71,67.86,98.48,67.86,98.48z"
			/>
		<path class="st3" d="M92.64,101.61c0,0,24.95-31.7-3.12-52.42c0,0,20.55,11.86,27.27,33.07S92.64,101.61,92.64,101.61z"/>
		<path class="st3" d="M98.81,67.49c0,0-29.9,3.08-37.64,37.1c0,0,2.64-23.57,19.38-38.23S98.81,67.49,98.81,67.49z"/>
		<path class="st4" d="M25.52,144.76c0,0,29.65-4.94,35.26-39.37c0,0-1.17,23.69-16.96,39.36S25.52,144.76,25.52,144.76z"/>
		<path class="st4" d="M42.47,119.98c0,0-5.46-31.42-39.57-24.08c0,0,22.49-7.56,42.84,1.44S42.47,119.98,42.47,119.98z"/>
		<path class="st4" d="M31.51,104.08c0,0-32.58,21.42-12.2,49.74c0,0-15.93-17.58-15.84-39.83S31.51,104.08,31.51,104.08z"/>
		<path class="st5" d="M66.34,106.34c0,0-16.07,25.4,5.87,52.53c0,0-16.89-16.65-18.05-38.87S66.34,106.34,66.34,106.34z"/>
		<path class="st5" d="M63.86,132.86c0,0,44.61,17.66,65.34-18.78c0,0-11.23,26.2-35.58,37.23S63.86,132.86,63.86,132.86z"/>
		<path class="st6" d="M31.78,61.31c0,0-7.99,37.31,26.86,38.82c0,0-23.66,1.64-41.09-12.19S31.78,61.31,31.78,61.31z"/>
		<path class="st6" d="M48.74,92.9c0,0,23.8-18.35,12.48-51.36c0,0,10.16,21.43,3.64,42.7S48.74,92.9,48.74,92.9z"/>
		<path class="st6" d="M58.46,60.82c0,0-26.35-14.46-52.06,9.13c0,0,15.57-17.9,37.67-20.43C66.18,46.98,58.46,60.82,58.46,60.82z"
			/>
	</g>
	<path class="st2" d="M274.16,110.07c0.16-1.47,0.25-2.96,0.25-4.47c0-21.21-16.08-38.66-36.71-40.84
		c9.05-8.11,9.41-18.7,9.42-20.04c0-0.02-0.02-0.01-0.02,0.01c-1.66,11.96-11.65,17.61-18.05,20.03
		c-19.18,2-34.44,17.07-36.52,36.34c-0.52,4.5-0.01,8.95-0.01,8.95c1.21,11.25,6.98,21.14,15.41,27.8h-61.59l52.51-64.45v-8.79
		H134.3v8.79h51.71l-51.71,64.45l0,8.79h97.56c0.49,0.02,0.99,0.04,1.48,0.04c17.88,0,33.09-11.43,38.72-27.38h-9.68
		c-5.14,10.9-16.2,18.45-29.04,18.45c-16.24,0-29.65-12.04-31.82-27.68h63.64c0,0.01,0,0.01,0,0.02H274.16z M201.53,101.1
		c2.19-15.62,15.59-27.64,31.81-27.64c16.22,0,29.63,12.02,31.81,27.64H201.53z"/>
</g>
</svg>
